<?xml version="1.0" encoding="UTF-8"?>
<svg id="Layer_2" data-name="Layer 2" xmlns="http://www.w3.org/2000/svg" viewBox="0 0 57.55 57.55">
  <defs>
    <style>
      .cls-1 {
        fill: #231f20;
      }
    </style>
  </defs>
  <g id="Layer_1-2" data-name="Layer 1">
    <path class="cls-1" d="m37.97,28.77l17.68-17.68c2.54-2.54,2.54-6.65,0-9.19-2.54-2.54-6.65-2.54-9.19,0l-17.68,17.68L11.1,1.9C8.56-.63,4.44-.63,1.9,1.9-.63,4.44-.63,8.56,1.9,11.1l17.68,17.68L1.9,46.45c-2.54,2.54-2.54,6.65,0,9.19,1.27,1.27,2.93,1.9,4.6,1.9s3.33-.63,4.6-1.9l17.68-17.68,17.68,17.68c1.27,1.27,2.93,1.9,4.6,1.9s3.33-.63,4.6-1.9c2.54-2.54,2.54-6.65,0-9.19l-17.68-17.68Z"/>
  </g>
</svg>